<?xml version="1.0" standalone="no"?>
<!DOCTYPE svg PUBLIC "-//W3C//DTD SVG 20010904//EN"
 "http://www.w3.org/TR/2001/REC-SVG-20010904/DTD/svg10.dtd">
<svg version="1.0" xmlns="http://www.w3.org/2000/svg"
 width="700.000000pt" height="700.000000pt" viewBox="0 0 700.000000 700.000000"
 preserveAspectRatio="xMidYMid meet">
<metadata>
Created by potrace 1.11, written by Peter Selinger 2001-2013
</metadata>
<g transform="translate(0.000000,700.000000) scale(0.100000,-0.100000)"
fill="#000000" stroke="none">
<path d="M2260 5243 l0 -643 -27 -1 c-16 0 -144 -1 -285 -1 l-258 0 0 -209 c0
-160 3 -209 13 -210 6 0 134 -1 284 -1 l272 0 1 -420 c0 -430 5 -507 41 -638
25 -94 115 -276 174 -355 172 -229 420 -382 699 -431 69 -12 165 -16 401 -17
l310 -1 3 211 2 211 -247 -1 c-290 0 -342 5 -443 44 -164 63 -305 213 -359
380 -29 89 -30 113 -36 629 -5 475 -13 1086 -20 1560 -2 146 -4 326 -4 401
l-1 135 -260 0 -260 1 0 -644z"/>
<path d="M3043 4602 l-63 -3 0 -209 0 -210 444 0 444 0 -139 -417 c-76 -230
-139 -423 -139 -430 0 -8 55 -12 203 -12 234 -1 274 -4 380 -31 429 -111 701
-514 656 -974 -14 -137 -37 -226 -89 -334 -50 -104 -90 -162 -161 -234 -50
-50 -185 -148 -204 -148 -4 0 -21 -7 -38 -15 -18 -8 -66 -24 -107 -36 -69 -20
-101 -23 -385 -26 -251 -2 -322 0 -373 12 -216 52 -429 245 -488 445 -7 24
-12 87 -14 155 l0 31 -237 -2 c-131 -1 -242 -2 -246 -3 -15 -2 2 -234 23 -310
102 -364 457 -657 892 -735 66 -12 155 -14 433 -12 371 3 394 5 520 37 251 64
428 161 595 329 176 175 286 378 340 626 50 232 46 457 -14 730 -11 52 -62
186 -97 258 -85 171 -195 308 -331 411 -40 30 -77 59 -83 63 -50 38 -272 133
-341 145 -16 3 -54 10 -84 16 -30 6 -68 12 -85 15 -16 2 -30 5 -31 5 -1 1 63
193 141 429 78 235 141 428 140 430 -3 4 -1384 8 -1462 4z"/>
</g>
</svg>
