<?xml version="1.0" standalone="no"?>
<!DOCTYPE svg PUBLIC "-//W3C//DTD SVG 20010904//EN"
 "http://www.w3.org/TR/2001/REC-SVG-20010904/DTD/svg10.dtd">
<svg version="1.0" xmlns="http://www.w3.org/2000/svg"
 width="512.000000pt" height="512.000000pt" viewBox="0 0 512.000000 512.000000"
 preserveAspectRatio="xMidYMid meet">
<metadata>
Created by potrace 1.11, written by Peter Selinger 2001-2013
</metadata>
<g transform="translate(0.000000,512.000000) scale(0.100000,-0.100000)"
fill="#000000" stroke="none">
<path d="M10 2560 l0 -2550 2550 0 2550 0 0 2550 0 2550 -2550 0 -2550 0 0
-2550z m2314 1713 c-3 -21 -27 -159 -53 -308 l-47 -270 853 -3 c815 -2 853 -3
853 -20 0 -10 -18 -120 -40 -244 l-39 -225 -128 -125 c-70 -68 -249 -241 -398
-383 -148 -142 -290 -277 -313 -300 l-44 -42 124 -12 c334 -33 487 -110 601
-302 66 -113 82 -181 82 -359 -1 -130 -4 -169 -24 -240 -88 -325 -288 -550
-600 -676 -219 -89 -394 -118 -701 -118 -285 -1 -437 23 -693 106 -94 30 -98
33 -93 57 3 14 27 143 52 286 26 143 47 261 48 262 2 2 52 -22 111 -52 288
-147 610 -189 868 -116 182 53 310 175 346 332 19 80 13 179 -13 234 -59 128
-189 186 -447 201 l-117 7 -12 -74 c-7 -41 -24 -144 -39 -229 l-26 -155 -355
0 c-305 1 -365 3 -425 18 -197 50 -295 146 -326 322 -23 136 -8 288 85 824 47
272 86 500 86 508 0 10 -32 13 -156 13 -143 0 -155 1 -150 18 3 9 21 109 41
222 19 113 38 217 41 232 l5 27 157 3 156 3 38 215 c20 118 45 257 54 308 l16
92 314 0 314 0 -6 -37z"/>
<path d="M2135 3178 c-16 -47 -168 -957 -169 -1013 -2 -122 40 -154 204 -163
l96 -4 38 218 c36 211 39 220 69 250 18 17 165 158 327 314 162 156 324 311
360 346 l65 64 -493 0 c-385 0 -494 -3 -497 -12z"/>
</g>
</svg>
