<?xml version="1.0" encoding="UTF-8"?>
<svg width="32px" height="32px" viewBox="0 0 32 32" version="1.1" xmlns="http://www.w3.org/2000/svg" xmlns:xlink="http://www.w3.org/1999/xlink">
    <!-- Generator: Sketch 56.3 (81716) - https://sketch.com -->
    <title>icon-32/2x-baking</title>
    <desc>Created with Sketch.</desc>
    <g id="icon-32/2x-baking" stroke="none" stroke-width="1" fill="none" fill-rule="evenodd">
        <path d="M4,24 L28,24 C29.1045695,24 30,23.1045695 30,22 C30,20.8954305 29.1045695,20 28,20 L4,20 C2.8954305,20 2,20.8954305 2,22 C2,23.1045695 2.8954305,24 4,24 Z" id="Path-9" fill="#28B9F7" fill-rule="nonzero"></path>
        <path d="M4,12 L28,12 C29.1045695,12 30,11.1045695 30,10 C30,8.8954305 29.1045695,8 28,8 L4,8 C2.8954305,8 2,8.8954305 2,10 C2,11.1045695 2.8954305,12 4,12 Z" id="Path-9" fill="#28B9F7" fill-rule="nonzero"></path>
    </g>
</svg>