<?xml version="1.0" encoding="UTF-8"?>
<svg width="32px" height="32px" viewBox="0 0 32 32" version="1.1" xmlns="http://www.w3.org/2000/svg" xmlns:xlink="http://www.w3.org/1999/xlink">
    <!-- Generator: Sketch 56.3 (81716) - https://sketch.com -->
    <title>icon-32/seed nonce</title>
    <desc>Created with Sketch.</desc>
    <g id="icon-32/seed-nonce" stroke="none" stroke-width="1" fill="none" fill-rule="evenodd">
        <path d="M16,13.3024786 L25.7438036,3.55867498 C26.4887036,2.81377501 27.696425,2.81377501 28.441325,3.55867498 C29.186225,4.30357496 29.186225,5.51129644 28.441325,6.25619642 L18.6975214,16 L28.441325,25.7438036 C29.186225,26.4887036 29.186225,27.696425 28.441325,28.441325 C27.696425,29.186225 26.4887036,29.186225 25.7438036,28.441325 L16,18.6975214 L6.25619642,28.441325 C5.51129644,29.186225 4.30357496,29.186225 3.55867498,28.441325 C2.81377501,27.696425 2.81377501,26.4887036 3.55867498,25.7438036 L13.3024786,16 L3.55867498,6.25619642 C2.81377501,5.51129644 2.81377501,4.30357496 3.55867498,3.55867498 C4.30357496,2.81377501 5.51129644,2.81377501 6.25619642,3.55867498 L16,13.3024786 Z" id="Path" fill="#28B9F7" fill-rule="nonzero"></path>
    </g>
</svg>